<svg xmlns="http://www.w3.org/2000/svg" width="32" height="32" viewBox="0 0 24 24"><!-- Icon from Lucide by Lucide Contributors - https://github.com/lucide-icons/lucide/blob/main/LICENSE --><g fill="none" stroke="currentColor" stroke-linecap="round" stroke-linejoin="round" stroke-width="2"><path d="M12 22h6a2 2 0 0 0 2-2V7l-5-5H6a2 2 0 0 0-2 2v3.072"/><path d="M14 2v4a2 2 0 0 0 2 2h4M6.69 16.479l1.29 4.88a.5.5 0 0 1-.698.591l-1.843-.849a1 1 0 0 0-.88.001l-1.846.85a.5.5 0 0 1-.693-.593l1.29-4.88"/><circle cx="5" cy="14" r="3"/></g></svg>